# xmcd
#
# Track frame offsets:
#	150
#	19572
#	39332
#	60654
#	73769
#	88268
#	104286
#	118846
#	130937
#	147186
#	161619
#	176841
#	187946
#	209268
#	225517
#
# Disc length: 3199 seconds
#
# Revision: 0
# Processed by: cddbd v1.5.2PL0 Copyright (c) Steve Scherf et al.
# Submitted via: EasyCDDAExtractor 12.0.4.1
#
DISCID=ce0c7d0f
DTITLE=Cat Club - Con el debido Respeto
DYEAR=2010
DGENRE=Rock and Roll
TTITLE0=Con el debido respeto
TTITLE1=Amante a la antigua
TTITLE2=Nunca he estado en Graceland
TTITLE3=Tal para cual
TTITLE4=Quiero
TTITLE5=Rey por un día
TTITLE6=Camino de rosas
TTITLE7=Little bitty pretty one
TTITLE8=Shoo bop bop
TTITLE9=Paralizado
TTITLE10=Loco de la cabeza a los pies
TTITLE11=Una vida de loco quiero llevar
TTITLE12=Nunca he estado en Graceland (Con Carlos Segarra)
TTITLE13=Shoo bop bop (Con Rockin´ Pauly)
TTITLE14=Camino de rosas (Con Marcos Sendarrubias)
EXTD=
EXTT0=
EXTT1=
EXTT2=
EXTT3=
EXTT4=
EXTT5=
EXTT6=
EXTT7=
EXTT8=
EXTT9=
EXTT10=
EXTT11=
EXTT12=
EXTT13=
EXTT14=
PLAYORDER=
